# xmcd
#
# Track frame offsets:
# 150
# 10953
# 22020
# 38318
# 49822
# 67773
#
# Disc length: 1099 seconds
#
# Revision: 0
# Processed by: cddbd v1.5PL3 Copyright (c) Steve Scherf et al.
# Submitted via: Audion 3.0.2 (http://www.panic.com/audion/)
#
DISCID=3d044906
DTITLE=Marvins Revolt - Marvins Revolt EP
DYEAR=1900
DGENRE=
TTITLE0=Rich Man's Life and Love
TTITLE1=JeJune
TTITLE2=It's All Heat
TTITLE3=Surfin' the Sun
TTITLE4=Pick Me Flowers
TTITLE5=Nothing Less
EXTD=
EXTT0=
EXTT1=
EXTT2=
EXTT3=
EXTT4=
EXTT5=
PLAYORDER=
